<svg xmlns="http://www.w3.org/2000/svg" xmlns:xlink="http://www.w3.org/1999/xlink" width="310" zoomAndPan="magnify" viewBox="0 0 232.5 232.499992" height="310" preserveAspectRatio="xMidYMid meet" version="1.2"><defs><clipPath id="3e1188569e"><path d="M 30 56.09375 L 202 56.09375 L 202 218.804688 L 30 218.804688 Z M 30 56.09375 "/></clipPath></defs><g id="7b9a530009"><path style=" stroke:none;fill-rule:nonzero;fill:#ffffff;fill-opacity:1;" d="M 0 0 L 232 0 L 232 232 L 0 232 Z M 0 0 "/><path style=" stroke:none;fill-rule:nonzero;fill:#ffffff;fill-opacity:1;" d="M 0 0 L 232 0 L 232 232 L 0 232 Z M 0 0 "/><g clip-rule="nonzero" clip-path="url(#3e1188569e)"><path style=" stroke:none;fill-rule:nonzero;fill:#000000;fill-opacity:1;" d="M 200.941406 129.589844 L 119.660156 57.859375 C 117.554688 55.996094 114.390625 55.996094 112.285156 57.859375 L 31.003906 129.589844 C 30.40625 130.121094 30.0625 130.878906 30.0625 131.679688 L 30.0625 216.046875 C 30.0625 217.585938 31.308594 218.832031 32.847656 218.832031 L 89.984375 218.832031 C 91.519531 218.832031 92.769531 217.585938 92.769531 216.046875 L 92.769531 162.160156 C 92.769531 156.015625 97.757812 151.03125 103.910156 151.03125 L 128.035156 151.03125 C 134.191406 151.03125 139.175781 156.015625 139.175781 162.160156 L 139.175781 216.046875 C 139.175781 217.585938 140.425781 218.832031 141.960938 218.832031 L 199.097656 218.832031 C 200.636719 218.832031 201.882812 217.585938 201.882812 216.046875 L 201.882812 131.679688 C 201.882812 130.878906 201.542969 130.121094 200.941406 129.589844 "/></g><path style=" stroke:none;fill-rule:nonzero;fill:#000000;fill-opacity:1;" d="M 223.335938 101.757812 L 130.683594 20.402344 C 122.269531 13.015625 109.675781 13.015625 101.261719 20.402344 L 8.609375 101.757812 C 4.042969 105.769531 3.816406 112.800781 8.117188 117.097656 C 12.046875 121.019531 18.351562 121.21875 22.519531 117.550781 L 108.609375 41.792969 C 112.816406 38.089844 119.128906 38.089844 123.335938 41.792969 L 209.429688 117.550781 C 213.597656 121.21875 219.902344 121.019531 223.828125 117.097656 C 228.128906 112.800781 227.902344 105.769531 223.335938 101.757812 "/></g></svg>