<?xml version="1.0" encoding="UTF-8"?>
<!-- Generator: Adobe Illustrator 27.2.0, SVG Export Plug-In . SVG Version: 6.00 Build 0)  -->
<svg xmlns="http://www.w3.org/2000/svg" xmlns:xlink="http://www.w3.org/1999/xlink" version="1.1" id="Logo" x="0px" y="0px" viewBox="0 0 634 216" style="enable-background:new 0 0 634 216;" xml:space="preserve">
<style type="text/css">
	.st0{fill:#FFFFFF;}
</style>
<g>
	<g>
		<g>
			<path class="st0" d="M227.9,79.9c1.9,0.9,4.2,1.4,6.7,1.4c2.6,0,4.8-0.4,6.7-1.4c1.9-0.9,3.4-2.2,4.4-4s1.6-3.8,1.6-6.3V52.9h-6     v15.8c0,2.5-0.5,4.3-1.7,5.3c-1.1,1-2.7,1.5-4.8,1.5s-3.7-0.5-4.9-1.5s-1.7-2.7-1.7-5.3V52.9H222v16.7c0,2.5,0.5,4.6,1.5,6.3     C224.6,77.7,226,79,227.9,79.9z"></path>
			<polygon class="st0" points="258.5,63.5 258.5,63.5 273,80.9 278.1,80.9 278.1,52.9 271.8,52.9 271.8,69.6 271.8,69.6      257.7,52.9 252.2,52.9 252.2,80.9 258.5,80.9    "></polygon>
			<rect x="283.7" y="52.9" class="st0" width="6.2" height="28"></rect>
			<polygon class="st0" points="309.1,81 314.8,61.7 314.8,61.7 320.6,81 327,81 336.1,52.9 329.9,52.9 323.8,72.7 323.7,72.7      317.7,52.7 311.9,52.7 306.1,72.9 306,72.9 300.1,52.9 293.5,52.9 302.8,81    "></polygon>
			<polygon class="st0" points="361.3,75.4 345.8,75.4 345.8,69.2 359.5,69.2 359.5,64 345.8,64 345.8,58.3 361.1,58.3 361.1,52.9      339.6,52.9 339.6,80.9 361.3,80.9    "></polygon>
			<path class="st0" d="M371.7,70.7h5.1c0.2,0,0.3,0,0.4,0l6,10.2h6.9l-6.9-11.3c0.7-0.3,1.5-0.7,2-1c1-0.8,1.9-1.6,2.6-2.8     c0.6-1.2,0.9-2.6,0.9-4.1c0-1.9-0.4-3.4-1.3-4.7s-2-2.3-3.5-3.1s-3.2-1-5.3-1h-13.1v28h6.2L371.7,70.7L371.7,70.7z M371.7,58.2h6     c1.5,0,2.7,0.3,3.6,0.9c0.8,0.6,1.2,1.5,1.2,2.8s-0.4,2.2-1.2,2.9c-0.8,0.7-2,1-3.5,1h-6.1V58.2L371.7,58.2z"></path>
			<polygon class="st0" points="427.5,80.9 433.7,80.9 433.7,71.5 444.9,52.9 437.7,52.9 430.8,65.5 430.6,65.5 423.7,52.9      416.2,52.9 427.5,71.6    "></polygon>
			<polygon class="st0" points="455.9,80.9 462.2,80.9 462.2,58.3 471.3,58.3 471.3,52.9 446.6,52.9 446.6,58.3 455.9,58.3    "></polygon>
			<polygon class="st0" points="481.4,69.2 495,69.2 495,64 481.4,64 481.4,58.3 496.6,58.3 496.6,52.9 475.1,52.9 475.1,80.9      496.9,80.9 496.9,75.4 481.4,75.4    "></polygon>
			<polygon class="st0" points="508.4,80.9 514.6,80.9 514.6,58.3 523.8,58.3 523.8,52.9 499.1,52.9 499.1,58.3 508.4,58.3    "></polygon>
			<polygon class="st0" points="244.3,99.9 244.3,94.5 222.8,94.5 222.8,122.5 244.5,122.5 244.5,117.1 229,117.1 229,110.8      242.7,110.8 242.7,105.6 229,105.6 229,99.9    "></polygon>
			<polygon class="st0" points="254.9,111.1 257.3,111.1 265.3,122.5 272.9,122.5 262.5,108.2 272.2,94.5 265.1,94.5 257.1,105.9      254.9,105.9 254.9,94.5 248.6,94.5 248.6,122.5 254.9,122.5    "></polygon>
			<path class="st0" d="M299.8,101c-1.2-2.1-2.8-3.8-4.9-5s-4.7-1.8-7.7-1.8c-2.8,0-5.4,0.6-7.5,1.8c-2.1,1.2-3.8,2.9-5,5     s-1.8,4.7-1.8,7.5c0,2.9,0.6,5.4,1.8,7.6c1.2,2.2,2.8,3.8,5,5c2.1,1.2,4.7,1.8,7.7,1.8c2.9,0,5.4-0.6,7.5-1.8     c2.1-1.2,3.8-2.9,5-5s1.8-4.7,1.8-7.6C301.7,105.6,301,103.1,299.8,101z M294.2,113.4c-0.7,1.3-1.6,2.2-2.8,2.9     c-1.2,0.6-2.6,0.9-4.3,0.9c-1.6,0-3.1-0.3-4.3-0.9c-1.2-0.6-2.1-1.6-2.8-2.9c-0.7-1.3-0.9-2.9-0.9-4.9s0.3-3.6,1-4.9     s1.6-2.2,2.8-2.9c1.2-0.6,2.6-0.9,4.3-0.9c1.6,0,3.1,0.3,4.3,0.9c1.2,0.6,2.1,1.6,2.8,2.8c0.7,1.3,0.9,2.9,0.9,4.8     C295.2,110.5,294.9,112.1,294.2,113.4z"></path>
			<polygon class="st0" points="325.7,111.3 325.6,111.3 311.5,94.5 306.1,94.5 306.1,122.5 312.2,122.5 312.2,105.1 312.3,105.1      326.9,122.5 331.8,122.5 331.8,94.5 325.7,94.5    "></polygon>
			<path class="st0" d="M343.1,121.1c2.1,1.2,4.7,1.8,7.7,1.8c2.8,0,5.4-0.6,7.5-1.8s3.8-2.9,5-5s1.8-4.7,1.8-7.6s-0.6-5.4-1.8-7.5     c-1.2-2.1-2.8-3.8-4.9-5s-4.7-1.8-7.7-1.8c-2.8,0-5.4,0.6-7.5,1.8c-2.1,1.2-3.8,2.9-5,5s-1.8,4.7-1.8,7.5c0,2.9,0.6,5.4,1.8,7.6     C339.2,118.2,340.9,119.9,343.1,121.1z M343.7,103.6c0.7-1.3,1.6-2.2,2.8-2.9c1.2-0.7,2.6-0.9,4.3-0.9c1.6,0,3.1,0.3,4.3,0.9     c1.2,0.6,2.1,1.6,2.8,2.8c0.7,1.3,1,2.9,1,4.8s-0.3,3.6-1,4.9s-1.6,2.2-2.8,2.9c-1.2,0.6-2.6,0.9-4.3,0.9c-1.6,0-3.1-0.3-4.3-0.9     c-1.2-0.6-2.1-1.6-2.8-2.9c-0.7-1.3-1-2.9-1-4.9S343,104.9,343.7,103.6z"></path>
			<polygon class="st0" points="385,109 385,109 375.6,94.5 369.6,94.5 369.6,122.5 375.7,122.5 375.7,105 382.7,115.7 387.3,115.7      394.4,105 394.4,122.5 400.6,122.5 400.6,94.5 394.7,94.5    "></polygon>
			<rect x="406.3" y="94.5" class="st0" width="6.2" height="28"></rect>
			<polygon class="st0" points="468.7,99 468.7,94.5 446,94.5 446,100 460.5,100 445.8,118.2 445.8,122.5 469,122.5 469,117.1      454.3,117.1    "></polygon>
			<polygon class="st0" points="492.8,111.3 492.8,111.3 478.6,94.5 473.3,94.5 473.3,122.5 479.4,122.5 479.4,105.1 479.5,105.1      494,122.5 499,122.5 499,94.5 492.8,94.5    "></polygon>
			<polygon class="st0" points="524,94.5 517.1,107.2 516.9,107.2 510.1,94.5 502.6,94.5 513.9,113.2 513.9,122.5 520.1,122.5      520.1,113.1 531.3,94.5    "></polygon>
			<path class="st0" d="M404.4,63.5c-3.5-0.3-5.8-1-5.8-2.8c0-1.9,2-3.1,5.3-3.1c2.9,0,5.4,1.4,6.2,2.7l0.3,0.3l4.9-2.4l-0.2-0.4     c-1.9-3.6-5.8-5.5-11.3-5.5c-5.6,0.1-11.3,2.6-11.3,8.2c0,6.3,5.7,7.8,11.3,8.4c4.1,0.4,6.1,1.5,6.1,3.4c0,3.2-4.5,3.5-6,3.5     c-3.6,0-6.4-1.5-7.4-3.9l-0.2-0.4l-5.2,2.6l0.2,0.4c2,4.5,6.1,6.7,12.5,6.7c5.9,0,12.1-2.3,12.1-8.9     C416,65.8,410.5,64.2,404.4,63.5z"></path>
			<path class="st0" d="M438.6,114.2l-0.4,0.4c-1.6,1.6-4.2,2.6-6.6,2.6c-6.6,0-9-4.6-9-8.9c0-2.6,0.9-4.9,2.6-6.7     c1.6-1.6,3.8-2.5,6.5-2.5c2.5,0,4.7,0.9,6.3,2.5l0.4,0.3l4.3-4.2l-0.4-0.4c-2.9-2.9-6.6-4.4-10.6-4.4c-4.4,0-8.3,1.5-11,4.2     s-4.3,6.7-4.3,11c0,6.8,4.1,14.8,15.3,14.8c4.3,0,8.1-1.5,10.9-4.3l0.4-0.4L438.6,114.2z"></path>
		</g>
		<g>
			<polygon class="st0" points="245.7,160.6 240.5,144.7 237.2,144.7 232.3,160.6 226.7,144.7 223.4,144.7 230.6,164.5 233.9,164.5      238.8,148.8 244,164.5 247.2,164.5 254.4,144.7 251.1,144.7    "></polygon>
			<path class="st0" d="M270.7,145.7c-1.3-0.9-2.9-1.3-4.9-1.3c-1.4,0-2.6,0.3-3.8,0.8c-1.2,0.5-2.2,1.2-3.1,2.1     c-0.9,0.9-1.5,2-2,3.2c-0.5,1.3-0.8,2.6-0.8,4.1c0,2.2,0.5,4,1.5,5.5c0.9,1.5,2.2,2.6,3.8,3.4c1.6,0.8,3.3,1.1,5.1,1.1     c1,0,2-0.1,3.1-0.3c1-0.3,2-0.6,2.9-1l1.5-0.7l-0.9-2.1l-1.6,0.5c-0.8,0.3-1.6,0.4-2.4,0.6c-0.8,0.2-1.6,0.2-2.4,0.2     c-1.3,0-2.5-0.3-3.5-0.8c-1.1-0.5-2-1.3-2.6-2.2c-0.7-1-1-2.2-1.1-3.7h15.1V154c0-1.8-0.3-3.4-0.9-4.9     C273,147.7,271.9,146.5,270.7,145.7z M259.6,152.7c0.2-1.1,0.6-2.1,1.2-2.9c0.6-0.9,1.3-1.5,2.2-1.9c0.9-0.4,1.8-0.7,2.9-0.7     c1.7,0,3.1,0.5,4,1.5s1.5,2.3,1.7,4L259.6,152.7L259.6,152.7z"></path>
			<polygon class="st0" points="316.8,160.4 316.7,160.4 309.7,136.6 306.1,136.6 299.1,160.5 299,160.5 291.5,136.7 288,136.7      297.2,164.5 300.9,164.5 307.8,141.2 307.9,141.2 314.8,164.5 318.6,164.5 327.7,136.7 324.5,136.7    "></polygon>
			<path class="st0" d="M339.7,144.4c-0.9,0-1.8,0.2-2.8,0.5s-1.9,0.8-2.6,1.4l-1.5,1l-0.4-2.6h-2.3v19.7h3.2v-14.7l2.4-1     c1.2-0.5,2.2-0.9,3.2-1c0.9-0.2,1.8-0.3,2.7-0.3v-2.5c-0.3-0.2-0.5-0.3-0.8-0.3C340.2,144.4,339.9,144.4,339.7,144.4z"></path>
			<path class="st0" d="M357.8,145.7c-1.5-0.9-3.2-1.3-5.1-1.3s-3.6,0.4-5,1.3c-1.5,0.9-2.6,2-3.4,3.6c-0.9,1.5-1.3,3.2-1.3,5.2     s0.4,3.7,1.2,5.2c0.8,1.5,2,2.7,3.4,3.6s3.2,1.3,5.1,1.3s3.7-0.4,5.1-1.3s2.6-2,3.4-3.6c0.9-1.5,1.2-3.2,1.2-5.2     s-0.4-3.8-1.2-5.2C360.5,147.8,359.3,146.6,357.8,145.7z M358.4,158.4c-0.5,1.1-1.3,2-2.2,2.6c-0.9,0.6-2,0.9-3.4,0.9     c-1.3,0-2.4-0.3-3.4-0.9s-1.7-1.5-2.3-2.6c-0.6-1.1-0.9-2.4-0.9-3.8s0.3-2.7,0.9-3.8c0.5-1.1,1.3-2,2.3-2.6s2.1-0.9,3.4-0.9     s2.5,0.3,3.4,0.9c0.9,0.6,1.7,1.5,2.2,2.6s0.8,2.4,0.8,3.8S358.9,157.3,358.4,158.4z"></path>
			<path class="st0" d="M380.9,161.2c-0.7,0.2-1.4,0.3-2,0.4c-0.7,0.1-1.4,0.2-2,0.2c-1.4,0-2.6-0.3-3.8-0.9s-2-1.4-2.6-2.5     s-0.9-2.4-0.9-3.9c0-1.6,0.3-2.9,0.9-4s1.5-1.9,2.6-2.5s2.3-0.9,3.7-0.9c0.6,0,1.3,0,1.9,0.2c0.7,0.1,1.4,0.3,2,0.4l1.2,0.3     l0.6-2.3l-1-0.4c-0.8-0.3-1.6-0.6-2.5-0.8s-1.7-0.3-2.6-0.3c-1.9,0-3.5,0.4-5,1.2s-2.7,2-3.7,3.4c-0.9,1.5-1.4,3.3-1.4,5.5     c0,2.1,0.4,3.9,1.3,5.5c0.9,1.5,2,2.6,3.6,3.4s3.2,1.2,5.1,1.2c0.9,0,1.7-0.1,2.6-0.3s1.8-0.4,2.6-0.8l1.1-0.4l-0.6-2.2     L380.9,161.2z"></path>
			<path class="st0" d="M396.4,149.8l-0.9-2.2l-4.1,1.5V134l-3.2,1.3v14.8l-4.1,1.5l0.9,2.2l3.2-1.2v7.8c0,1.4,0.4,2.4,1.1,3.2     c0.8,0.8,2,1.1,3.8,1.1c0.4,0,0.9,0,1.3-0.1s0.9-0.2,1.3-0.4l0.1-2.4c-0.3,0.1-0.7,0.1-0.9,0.1s-0.6,0-0.9,0     c-0.9,0-1.6-0.2-2-0.5s-0.6-0.9-0.6-1.7v-8L396.4,149.8z"></path>
			<path class="st0" d="M414.1,160v-8.4c0-2.5-0.7-4.3-2-5.5c-1.4-1.2-3.2-1.8-5.4-1.8c-1.1,0-2.2,0.1-3.3,0.3     c-1.1,0.3-2.2,0.6-3.3,1l-1,0.4l0.6,2l1-0.3c0.7-0.2,1.5-0.3,2.4-0.5s1.8-0.3,2.7-0.3c1.6,0,2.8,0.3,3.8,1     c0.9,0.7,1.4,1.9,1.4,3.4v0.2l-7.2,1.7c-1.8,0.4-3.2,1-4.1,2c-0.9,0.9-1.5,2.1-1.5,3.8c0,1.2,0.3,2.2,0.9,3.1     c0.6,0.9,1.5,1.5,2.4,1.8c0.9,0.4,2,0.6,3.1,0.6c0.9,0,2-0.2,3-0.6s2-0.9,2.9-1.7l0.9-0.8c0.2,0.9,0.7,1.6,1.4,2.2     c0.7,0.6,1.7,0.9,3,0.9c0.3,0,0.6,0,0.9-0.1c0.3,0,0.5-0.1,0.8-0.1l0.2-2.1c-1.4-0.1-2.3-0.3-2.6-0.6     C414.4,161.5,414.1,160.9,414.1,160z M411,159.4l-1.1,0.9c-0.8,0.5-1.5,0.9-2.1,1.2c-0.7,0.3-1.5,0.4-2.1,0.4     c-1.3,0-2.3-0.3-3.1-0.8c-0.8-0.5-1.2-1.3-1.2-2.2c0-0.8,0.2-1.4,0.7-2c0.4-0.5,1.2-0.9,2.4-1.3l6.7-1.8L411,159.4L411,159.4z"></path>
			<polygon class="st0" points="440,160.6 434.8,144.7 431.5,144.7 426.5,160.6 420.9,144.7 417.6,144.7 424.9,164.5 428.1,164.5      433.1,148.8 438.3,164.5 441.4,164.5 448.5,144.7 445.4,144.7    "></polygon>
			<path class="st0" d="M455.1,135.5c-0.3-0.2-0.7-0.3-1.1-0.3s-0.8,0.1-1.1,0.3c-0.3,0.2-0.7,0.4-0.9,0.9c-0.2,0.3-0.3,0.7-0.3,1.1     c0,0.4,0.1,0.8,0.3,1.1c0.2,0.3,0.5,0.6,0.9,0.9c0.3,0.3,0.8,0.3,1.1,0.3c0.4,0,0.8-0.1,1.1-0.3c0.3-0.3,0.6-0.5,0.9-0.9     s0.3-0.7,0.3-1.1c0-0.4-0.1-0.8-0.3-1.1C455.8,136,455.5,135.7,455.1,135.5z"></path>
			<rect x="452.4" y="144.7" class="st0" width="3.2" height="19.7"></rect>
			<path class="st0" d="M474.8,144.7v15.2l-1.8,0.9c-0.7,0.3-1.4,0.6-2,0.8s-1.3,0.3-2,0.3c-1.5,0-2.5-0.3-3.2-1     c-0.8-0.7-1.1-1.8-1.1-3.3v-12.7h-3.2v13.4c0,2,0.5,3.6,1.5,4.8s2.6,1.8,4.8,1.8c0.9,0,1.9-0.1,2.8-0.4s2-0.7,3-1.2l1.5-0.8     l0.3,2.1h2.4v-19.7L474.8,144.7L474.8,144.7z"></path>
		</g>
	</g>
	<g>
		<path class="st0" d="M114.9,158.7c3.4-7.3,5.2-15,5.2-23.1V28.5c0-0.7-0.6-1.3-1.3-1.3H73c-0.7,0-1.3,0.6-1.3,1.3v159.9    c0,0.8,0.7,1.4,1.5,1.3C91.2,187,107,175.5,114.9,158.7z"></path>
		<path class="st0" d="M16.2,158.7c-3.4-7.3-5.2-15-5.2-23.1V28.5c0-0.7,0.6-1.3,1.3-1.3h45.8c0.7,0,1.3,0.6,1.3,1.3v159.9    c0,0.8-0.7,1.4-1.5,1.3C39.8,187,24,175.5,16.2,158.7z"></path>
		<g>
			<path class="st0" d="M179.1,142c0.8,0,1.4,0.7,1.3,1.5c-1,7.3-3.8,14.5-7.6,20.8l0,0c-19.2,26.9-39.4,25.6-64.4,25.4     c-1.2,0-1.7-1.5-0.8-2.2c13.6-10.8,22.6-27.1,24.5-44.4c0.1-0.6,0.6-1.1,1.3-1.1H179.1L179.1,142z"></path>
			<path class="st0" d="M132.4,88.8v39.8c0,0.7,0.6,1.3,1.3,1.3h46c0.7,0,1.3-0.6,1.3-1.3V88.8c0-0.7-0.6-1.3-1.3-1.3h-46     C133,87.5,132.4,88.1,132.4,88.8z"></path>
			<path class="st0" d="M133.7,75.2h46c0.7,0,1.3-0.6,1.3-1.3V28.5c0-0.7-0.6-1.3-1.3-1.3h-46c-0.7,0-1.3,0.6-1.3,1.3V74     C132.4,74.7,133,75.2,133.7,75.2z"></path>
		</g>
	</g>
</g>
</svg>
